<svg version="1.1" xmlns="http://www.w3.org/2000/svg" xmlns:xlink="http://www.w3.org/1999/xlink" role="img" width="209" height="90" viewbox="0 0 209 90"><title>RotNet</title><desc>Generated by logo.svg, https://github.com/bubkoo/logo.svg</desc><path fill="#2b68a7" d="M-0.28 70.35L0.30 67.66L1.13 67.66Q3.18 67.66 4.87 66.96Q6.57 66.26 7.21 63.38L13.93 31.70Q14.18 30.67 14.18 29.90Q14.18 28.24 12.90 27.79Q11.62 27.34 9.58 27.34L8.74 27.34L9.32 24.66L26.09 24.66Q40.74 24.66 40.74 35.54Q40.74 39.89 38.92 42.64Q37.10 45.39 34.34 46.86Q31.59 48.34 28.90 48.91L33.51 62.61Q34.41 65.23 35.50 66.45Q36.58 67.66 38.76 67.66L39.27 67.66L38.76 70.35L37.93 70.35Q34.28 70.35 32.07 69.71Q29.86 69.07 28.62 67.47Q27.37 65.87 26.54 62.86L22.82 50.19L16.49 50.19L13.67 63.31Q13.42 64.34 13.42 65.10Q13.42 66.77 14.70 67.22Q15.98 67.66 18.02 67.66L20.14 67.66L19.56 70.35L-0.28 70.35M17.13 47.18L22.06 47.18Q25.45 47.18 28.14 46.03Q30.82 44.88 32.39 42.42Q33.96 39.95 33.96 35.92Q33.96 31.38 31.91 29.55Q29.86 27.73 25.58 27.73L21.22 27.73L17.13 47.18ZM58.54 70.99Q53.10 70.99 49.67 67.70Q46.25 64.40 46.25 57.74Q46.25 54.22 47.40 50.32Q48.55 46.42 50.92 43.02Q53.29 39.63 56.87 37.52Q60.46 35.41 65.32 35.41Q68.71 35.41 71.46 36.75Q74.22 38.10 75.85 41.04Q77.48 43.98 77.48 48.66Q77.48 51.41 76.78 54.45Q76.07 57.49 74.60 60.43Q73.13 63.38 70.89 65.74Q68.65 68.11 65.54 69.55Q62.44 70.99 58.54 70.99M59.24 67.73Q62.38 67.73 64.58 65.71Q66.79 63.70 68.17 60.53Q69.54 57.36 70.18 53.90Q70.82 50.45 70.82 47.57Q70.82 42.77 69.16 40.72Q67.50 38.67 64.55 38.67Q62.06 38.67 60.14 40.02Q58.22 41.36 56.84 43.57Q55.46 45.78 54.60 48.46Q53.74 51.15 53.32 53.87Q52.90 56.59 52.90 58.90Q52.90 63.76 54.63 65.74Q56.36 67.73 59.24 67.73ZM91.94 70.99Q84.97 70.99 84.97 63.50Q84.97 62.35 85.16 60.85Q85.35 59.34 85.61 58.13L89.51 39.70L84.65 39.70L85.22 37.14Q87.98 37.14 90.54 35.12Q93.10 33.10 95.02 28.18L97.96 28.18L96.30 36.05L104.04 36.05L103.27 39.70L95.53 39.70L91.62 57.94Q91.30 59.54 91.08 60.98Q90.86 62.42 90.86 63.44Q90.86 65.30 91.75 66.13Q92.65 66.96 94.25 66.96Q95.59 66.96 97 66.54Q98.41 66.13 99.50 65.55L100.58 67.92Q98.66 69.26 96.49 70.13Q94.31 70.99 91.94 70.99ZM102.50 70.35L103.08 67.66L103.91 67.66Q106.02 67.66 107.72 66.86Q109.42 66.06 110.06 63.06L116.71 31.70Q116.97 30.67 116.97 29.90Q116.97 28.24 115.69 27.79Q114.41 27.34 112.36 27.34L111.53 27.34L112.10 24.66L123.75 24.66L139.24 59.98L145.26 31.70Q145.51 30.67 145.51 29.90Q145.51 28.24 144.23 27.79Q142.95 27.34 140.90 27.34L140.07 27.34L140.65 24.66L156.71 24.66L156.14 27.34L155.30 27.34Q153.13 27.34 151.43 28.14Q149.74 28.94 149.10 31.95L140.97 70.35L136.81 70.35L120.36 32.85L113.90 63.31Q113.64 64.34 113.64 65.10Q113.64 66.77 114.92 67.22Q116.20 67.66 118.25 67.66L119.08 67.66L118.50 70.35L102.50 70.35ZM167.85 70.99Q164.39 70.99 161.58 69.52Q158.76 68.05 157.06 65.14Q155.37 62.22 155.37 57.74Q155.37 54.22 156.58 50.32Q157.80 46.42 160.23 43.02Q162.66 39.63 166.22 37.52Q169.77 35.41 174.44 35.41Q178.47 35.41 180.71 37.36Q182.95 39.31 182.95 42.77Q182.95 46.16 180.55 49.07Q178.15 51.98 173.96 53.78Q169.77 55.57 164.39 55.57L162.15 55.57Q162.09 56.27 162.06 56.94Q162.02 57.62 162.02 58.26Q162.02 62.42 163.82 64.69Q165.61 66.96 169.06 66.96Q172.14 66.96 174.54 65.49Q176.94 64.02 178.28 62.35Q178.92 62.80 178.92 63.95Q178.92 65.36 177.74 66.99Q176.55 68.62 174.12 69.81Q171.69 70.99 167.85 70.99M162.73 52.62L163.37 52.62Q167.08 52.62 170.02 51.38Q172.97 50.13 174.66 47.92Q176.36 45.71 176.36 42.77Q176.36 38.48 172.65 38.48Q170.79 38.48 169.22 39.73Q167.66 40.98 166.38 43.06Q165.10 45.14 164.17 47.63Q163.24 50.13 162.73 52.62ZM195.88 70.99Q188.90 70.99 188.90 63.50Q188.90 62.35 189.10 60.85Q189.29 59.34 189.54 58.13L193.45 39.70L188.58 39.70L189.16 37.14Q191.91 37.14 194.47 35.12Q197.03 33.10 198.95 28.18L201.90 28.18L200.23 36.05L207.98 36.05L207.21 39.70L199.46 39.70L195.56 57.94Q195.24 59.54 195.02 60.98Q194.79 62.42 194.79 63.44Q194.79 65.30 195.69 66.13Q196.58 66.96 198.18 66.96Q199.53 66.96 200.94 66.54Q202.34 66.13 203.43 65.55L204.52 67.92Q202.60 69.26 200.42 70.13Q198.25 70.99 195.88 70.99Z"></path></svg>